<svg width="1024" height="1024" viewBox="0 0 1024 1024" xmlns="http://www.w3.org/2000/svg">
  <defs>
    <linearGradient id="bg" x1="0" y1="0" x2="1" y2="1">
      <stop offset="0" stop-color="#8271F8"/>
      <stop offset="1" stop-color="#4632C9"/>
    </linearGradient>
    <linearGradient id="sheen" x1="0" y1="0" x2="0" y2="1">
      <stop offset="0" stop-color="#ffffff" stop-opacity="0.20"/>
      <stop offset="0.55" stop-color="#ffffff" stop-opacity="0"/>
    </linearGradient>
    <linearGradient id="head" x1="0" y1="0" x2="0" y2="1">
      <stop offset="0" stop-color="#ffffff"/>
      <stop offset="1" stop-color="#E7E3FF"/>
    </linearGradient>
    <radialGradient id="spark" cx="0.5" cy="0.4" r="0.6">
      <stop offset="0" stop-color="#FFD9C8"/>
      <stop offset="0.5" stop-color="#F2A088"/>
      <stop offset="1" stop-color="#E27B5C"/>
    </radialGradient>
    <filter id="ds" x="-40%" y="-40%" width="180%" height="180%">
      <feDropShadow dx="0" dy="20" stdDeviation="28" flood-color="#170F49" flood-opacity="0.38"/>
    </filter>
    <filter id="glow" x="-120%" y="-120%" width="340%" height="340%">
      <feGaussianBlur stdDeviation="14" result="b"/>
      <feMerge><feMergeNode in="b"/><feMergeNode in="SourceGraphic"/></feMerge>
    </filter>
  </defs>

  <rect width="1024" height="1024" rx="232" fill="url(#bg)"/>
  <rect width="1024" height="1024" rx="232" fill="url(#sheen)"/>

  <!-- antenna + spark -->
  <g filter="url(#glow)">
    <rect x="500" y="212" width="24" height="118" rx="12" fill="#CFC8F5"/>
    <circle cx="512" cy="206" r="40" fill="url(#spark)"/>
  </g>

  <g filter="url(#ds)">
    <!-- Roblox studs on top of the head -->
    <rect x="372" y="300" width="104" height="58" rx="26" fill="#CFC8F5"/>
    <rect x="548" y="300" width="104" height="58" rx="26" fill="#CFC8F5"/>
    <ellipse cx="424" cy="300" rx="52" ry="17" fill="#EEEBFF"/>
    <ellipse cx="600" cy="300" rx="52" ry="17" fill="#EEEBFF"/>

    <!-- brick head -->
    <rect x="292" y="330" width="440" height="404" rx="96" fill="url(#head)"/>

    <!-- visor -->
    <rect x="344" y="430" width="336" height="150" rx="66" fill="#241E42"/>
    <!-- eyes -->
    <g filter="url(#glow)">
      <circle cx="432" cy="505" r="40" fill="url(#spark)"/>
      <circle cx="592" cy="505" r="40" fill="url(#spark)"/>
    </g>

    <!-- little mouth -->
    <rect x="452" y="642" width="120" height="24" rx="12" fill="#C7BFF0"/>
  </g>
</svg>
